<svg width="28" height="42" viewBox="0 0 28 42" fill="none" xmlns="http://www.w3.org/2000/svg">
<path d="M23.8708 21.0007L3.99976 5C3.99976 5 2.3427 15.0189 1.93531 21.5C1.5208 28.0944 2.49976 38.5 2.49976 38.5L23.8708 21.0007Z" fill="#BD00FF"/>
<path d="M27.9631 21.4042C27.9783 20.8291 27.7292 20.247 27.2371 19.8425L6.74027 1.45684C6.30114 1.05386 5.72552 0.808368 5.06439 0.790861C3.68943 0.754452 2.60736 1.64672 2.57568 2.84313C2.56106 3.39529 2.81089 3.95446 3.2235 4.35674L22.0399 21.2474L2.35597 37.1185C1.92264 37.4985 0.468741 38.9898 0.453511 39.565C0.42183 40.7614 1.45516 41.7096 2.83012 41.7461C3.49125 41.7636 5.25449 40.5797 5.74073 40.2012L27.1555 22.9254C27.6695 22.5016 27.9472 22.0024 27.9631 21.4042Z" fill="#BE8666"/>
</svg>
