<svg width="25" height="24" viewBox="0 0 25 24" fill="none" xmlns="http://www.w3.org/2000/svg">
<path d="M13.84 8.17C12.91 8.17 12.15 7.4 12.15 6.47C12.15 6.02178 12.3281 5.59193 12.645 5.27499C12.9619 4.95805 13.3918 4.78 13.84 4.78C14.78 4.78 15.54 5.54 15.54 6.47C15.54 7.4 14.78 8.17 13.84 8.17ZM10.8 19.93L4.87 18.75L5.21 17.05L9.36 17.9L10.71 11.04L9.19 11.64V14.5H7.5V10.54L11.9 8.67L12.57 8.59C13.17 8.59 13.67 8.93 14 9.44L14.86 10.79C15.54 12 16.89 12.82 18.5 12.82V14.5C16.64 14.5 14.94 13.67 13.84 12.4L13.34 14.94L15.11 16.63V23H13.42V17.9L11.64 16.21L10.8 19.93ZM21.5 23H19.5V3H6.5V16.11L4.5 15.69V1H21.5V23ZM6.5 23H4.5V19.78L6.5 20.2V23Z" fill="#FEDC77"/>
</svg>
