<svg width="16" height="16" viewBox="0 0 16 16" fill="none" xmlns="http://www.w3.org/2000/svg">
<path d="M13.5001 2H9.50012C9.42355 1.99999 9.348 2.01757 9.2793 2.05138C9.2106 2.08519 9.15058 2.13433 9.10387 2.195L5.10387 7.39563L4.50012 6.79313C4.40725 6.70015 4.29696 6.62639 4.17556 6.57607C4.05417 6.52574 3.92404 6.49984 3.79262 6.49984C3.66121 6.49984 3.53108 6.52574 3.40968 6.57607C3.28828 6.62639 3.178 6.70015 3.08512 6.79313L2.292 7.58688C2.19911 7.67974 2.12543 7.78999 2.07517 7.91133C2.0249 8.03267 1.99902 8.16272 1.99902 8.29406C1.99902 8.4254 2.0249 8.55546 2.07517 8.6768C2.12543 8.79814 2.19911 8.90839 2.292 9.00125L3.542 10.2513L1.792 12.0013C1.69911 12.0941 1.62543 12.2044 1.57517 12.3257C1.5249 12.447 1.49902 12.5771 1.49902 12.7084C1.49902 12.8398 1.5249 12.9698 1.57517 13.0912C1.62543 13.2125 1.69911 13.3228 1.792 13.4156L2.58512 14.2081C2.77264 14.3955 3.02689 14.5008 3.292 14.5008C3.5571 14.5008 3.81136 14.3955 3.99887 14.2081L5.74887 12.4581L6.99887 13.7081C7.09175 13.8011 7.20203 13.8749 7.32343 13.9252C7.44483 13.9755 7.57496 14.0014 7.70637 14.0014C7.83779 14.0014 7.96792 13.9755 8.08931 13.9252C8.21071 13.8749 8.321 13.8011 8.41387 13.7081L9.207 12.9144C9.29988 12.8215 9.37356 12.7113 9.42383 12.5899C9.4741 12.4686 9.49997 12.3385 9.49997 12.2072C9.49997 12.0758 9.4741 11.9458 9.42383 11.8245C9.37356 11.7031 9.29988 11.5929 9.207 11.5L8.6045 10.8975L13.8051 6.8975C13.866 6.85066 13.9152 6.79044 13.949 6.72151C13.9828 6.65258 14.0003 6.57678 14.0001 6.5V2.5C14.0001 2.36739 13.9474 2.24021 13.8537 2.14645C13.7599 2.05268 13.6327 2 13.5001 2ZM3.29325 13.5L2.50012 12.7075L4.25012 10.9575L5.04262 11.75L3.29325 13.5ZM7.70637 13L3.00012 8.29438L3.79387 7.5L8.50012 12.2069L7.70637 13ZM13.0001 6.25375L7.89137 10.1838L7.20762 9.5L10.3539 6.35375C10.4476 6.25993 10.5002 6.13272 10.5002 6.00009C10.5001 5.86747 10.4474 5.7403 10.3536 5.64656C10.2597 5.55283 10.1325 5.5002 9.9999 5.50026C9.86728 5.50031 9.74011 5.55305 9.64637 5.64688L6.50012 8.7925L5.817 8.10875L9.74637 3H13.0001V6.25375Z" fill="#FEDC77"/>
</svg>
