<svg width="16" height="16" viewBox="0 0 16 16" fill="none" xmlns="http://www.w3.org/2000/svg">
<path d="M2.49988 2H6.49988C6.57645 1.99999 6.652 2.01757 6.7207 2.05138C6.7894 2.08519 6.84942 2.13433 6.89613 2.195L10.8961 7.39563L11.4999 6.79313C11.5928 6.70015 11.703 6.62639 11.8244 6.57607C11.9458 6.52574 12.076 6.49984 12.2074 6.49984C12.3388 6.49984 12.4689 6.52574 12.5903 6.57607C12.7117 6.62639 12.822 6.70015 12.9149 6.79313L13.708 7.58688C13.8009 7.67974 13.8746 7.78999 13.9248 7.91133C13.9751 8.03267 14.001 8.16272 14.001 8.29406C14.001 8.4254 13.9751 8.55546 13.9248 8.6768C13.8746 8.79814 13.8009 8.90839 13.708 9.00125L12.458 10.2513L14.208 12.0013C14.3009 12.0941 14.3746 12.2044 14.4248 12.3257C14.4751 12.447 14.501 12.5771 14.501 12.7084C14.501 12.8398 14.4751 12.9698 14.4248 13.0912C14.3746 13.2125 14.3009 13.3228 14.208 13.4156L13.4149 14.2081C13.2274 14.3955 12.9731 14.5008 12.708 14.5008C12.4429 14.5008 12.1886 14.3955 12.0011 14.2081L10.2511 12.4581L9.00113 13.7081C8.90825 13.8011 8.79797 13.8749 8.67657 13.9252C8.55517 13.9755 8.42504 14.0014 8.29363 14.0014C8.16221 14.0014 8.03208 13.9755 7.91069 13.9252C7.78929 13.8749 7.679 13.8011 7.58613 13.7081L6.793 12.9144C6.70012 12.8215 6.62644 12.7113 6.57617 12.5899C6.5259 12.4686 6.50003 12.3385 6.50003 12.2072C6.50003 12.0758 6.5259 11.9458 6.57617 11.8245C6.62644 11.7031 6.70012 11.5929 6.793 11.5L7.3955 10.8975L2.19488 6.8975C2.13403 6.85066 2.0848 6.79044 2.05098 6.72151C2.01716 6.65258 1.99968 6.57678 1.99988 6.5V2.5C1.99988 2.36739 2.05255 2.24021 2.14632 2.14645C2.24009 2.05268 2.36727 2 2.49988 2ZM12.7068 13.5L13.4999 12.7075L11.7499 10.9575L10.9574 11.75L12.7068 13.5ZM8.29363 13L12.9999 8.29438L12.2061 7.5L7.49988 12.2069L8.29363 13ZM2.99988 6.25375L8.10863 10.1838L8.79238 9.5L5.64613 6.35375C5.55239 6.25993 5.49976 6.13272 5.49982 6.00009C5.49988 5.86747 5.55262 5.7403 5.64644 5.64656C5.74026 5.55283 5.86747 5.5002 6.0001 5.50026C6.13272 5.50031 6.25989 5.55306 6.35363 5.64688L9.49988 8.7925L10.183 8.10875L6.25363 3H2.99988V6.25375Z" fill="#FEDC77"/>
</svg>
